<svg xmlns="http://www.w3.org/2000/svg" viewBox="0 0 800 600" role="img" aria-labelledby="title desc">
  <title id="title">Ortho Comfort mattress</title>
  <desc id="desc">A clean product illustration of a mattress on a light room background.</desc>
  <rect width="800" height="600" fill="#f4f7f8"/>
  <path d="M128 332 498 190l174 88-374 154z" fill="#ffffff"/>
  <path d="M128 332v82l170 92V432z" fill="#dbe8ed"/>
  <path d="M298 432v74l374-157v-71z" fill="#bfd3dc"/>
  <path d="M128 332 498 190l174 88-374 154z" fill="none" stroke="#7fa9b7" stroke-width="8" stroke-linejoin="round"/>
  <path d="M128 375 298 466l374-156" fill="none" stroke="#9fbec8" stroke-width="5" stroke-linecap="round"/>
  <path d="M255 285c68 34 137 33 205-1M348 247c58 28 113 27 165-1" fill="none" stroke="#d7e6eb" stroke-width="9" stroke-linecap="round"/>
  <circle cx="174" cy="145" r="44" fill="#ffd166"/>
  <path d="M600 442c34-24 80-24 115 0" fill="none" stroke="#9db7b8" stroke-width="8" stroke-linecap="round"/>
</svg>
