<svg xmlns="http://www.w3.org/2000/svg" viewBox="0 0 420 240" role="img" aria-labelledby="title desc">
  <title id="title">Подушки</title>
  <desc id="desc">Иллюстрация категории подушек.</desc>
  <rect width="420" height="240" rx="28" fill="#eef9f5"/>
  <circle cx="340" cy="56" r="25" fill="#ffcf70"/>
  <path d="M74 118c9-43 51-70 99-57 42 12 82 12 124 0 48-13 90 14 99 57 10 46-23 86-72 90-58 5-116 5-174 0-49-4-86-44-76-90z" fill="#ffffff"/>
  <path d="M98 120c8-24 35-38 66-29 48 14 94 14 142 0 31-9 58 5 66 29 9 29-14 54-47 57-58 5-116 5-174 0-34-3-62-28-53-57z" fill="#dcefed"/>
  <path d="M74 118c9-43 51-70 99-57 42 12 82 12 124 0 48-13 90 14 99 57 10 46-23 86-72 90-58 5-116 5-174 0-49-4-86-44-76-90z" fill="none" stroke="#8db8b2" stroke-width="6"/>
  <path d="M130 152c54 12 108 12 162 0" fill="none" stroke="#b9d6d2" stroke-width="7" stroke-linecap="round"/>
  <path d="M70 224h280" stroke="#cfe0dd" stroke-width="6" stroke-linecap="round"/>
</svg>
